<svg width="20.000000" height="20.000000" viewBox="0 0 20 20" fill="none" xmlns="http://www.w3.org/2000/svg" xmlns:xlink="http://www.w3.org/1999/xlink">
	<desc>
			Created with Pixso.
	</desc>
	<defs>
		<clipPath id="clip1_403">
			<rect id="Icon" rx="0.000000" width="19.000000" height="19.000000" transform="translate(0.500000 0.500000)" fill="white" fill-opacity="0"/>
		</clipPath>
	</defs>
	<rect id="Icon" rx="0.000000" width="19.000000" height="19.000000" transform="translate(0.500000 0.500000)" fill="#FFFFFF" fill-opacity="0"/>
	<g clip-path="url(#clip1_403)">
		<path id="Vector" d="M17.5 15.83L4.16 15.83L4.16 2.5C4.16 2.27 4.07 2.06 3.92 1.91C3.76 1.75 3.55 1.66 3.33 1.66C3.11 1.66 2.9 1.75 2.74 1.91C2.58 2.06 2.5 2.27 2.5 2.5L2.5 16.66C2.5 16.88 2.58 17.09 2.74 17.25C2.9 17.41 3.11 17.5 3.33 17.5L17.5 17.5C17.72 17.5 17.93 17.41 18.08 17.25C18.24 17.09 18.33 16.88 18.33 16.66C18.33 16.44 18.24 16.23 18.08 16.07C17.93 15.92 17.72 15.83 17.5 15.83Z" fill="#464255" fill-opacity="1.000000" fill-rule="nonzero"/>
		<path id="Vector" d="M5.83 9.16L5.83 13.33C5.83 13.55 5.92 13.76 6.07 13.92C6.23 14.07 6.44 14.16 6.66 14.16C6.88 14.16 7.09 14.07 7.25 13.92C7.41 13.76 7.5 13.55 7.5 13.33L7.5 9.16C7.5 8.94 7.41 8.73 7.25 8.57C7.09 8.42 6.88 8.33 6.66 8.33C6.44 8.33 6.23 8.42 6.07 8.57C5.92 8.73 5.83 8.94 5.83 9.16Z" fill="#464255" fill-opacity="1.000000" fill-rule="nonzero"/>
		<path id="Vector" d="M9.16 5L9.16 13.33C9.16 13.55 9.25 13.76 9.41 13.92C9.56 14.07 9.77 14.16 9.99 14.16C10.22 14.16 10.43 14.07 10.58 13.92C10.74 13.76 10.83 13.55 10.83 13.33L10.83 5C10.83 4.77 10.74 4.56 10.58 4.41C10.43 4.25 10.22 4.16 9.99 4.16C9.77 4.16 9.56 4.25 9.41 4.41C9.25 4.56 9.16 4.77 9.16 5Z" fill="#464255" fill-opacity="1.000000" fill-rule="nonzero"/>
		<path id="Vector" d="M12.5 6.66L12.5 13.33C12.5 13.55 12.58 13.76 12.74 13.92C12.9 14.07 13.11 14.16 13.33 14.16C13.55 14.16 13.76 14.07 13.92 13.92C14.07 13.76 14.16 13.55 14.16 13.33L14.16 6.66C14.16 6.44 14.07 6.23 13.92 6.07C13.76 5.92 13.55 5.83 13.33 5.83C13.11 5.83 12.9 5.92 12.74 6.07C12.58 6.23 12.5 6.44 12.5 6.66Z" fill="#464255" fill-opacity="1.000000" fill-rule="nonzero"/>
		<path id="Vector" d="M15.83 2.5L15.83 13.33C15.83 13.55 15.92 13.76 16.07 13.92C16.23 14.07 16.44 14.16 16.66 14.16C16.88 14.16 17.09 14.07 17.25 13.92C17.41 13.76 17.5 13.55 17.5 13.33L17.5 2.5C17.5 2.27 17.41 2.06 17.25 1.91C17.09 1.75 16.88 1.66 16.66 1.66C16.44 1.66 16.23 1.75 16.07 1.91C15.92 2.06 15.83 2.27 15.83 2.5Z" fill="#464255" fill-opacity="1.000000" fill-rule="nonzero"/>
	</g>
</svg>
