<svg width="20.000000" height="20.000000" viewBox="0 0 20 20" fill="none" xmlns="http://www.w3.org/2000/svg" xmlns:xlink="http://www.w3.org/1999/xlink">
	<desc>
			Created with Pixso.
	</desc>
	<defs>
		<clipPath id="clip1_418">
			<rect id="Icon" rx="0.000000" width="19.000000" height="19.000000" transform="translate(0.500000 0.500000)" fill="white" fill-opacity="0"/>
		</clipPath>
	</defs>
	<rect id="Icon" rx="0.000000" width="19.000000" height="19.000000" transform="translate(0.500000 0.500000)" fill="#FFFFFF" fill-opacity="0"/>
	<g clip-path="url(#clip1_418)">
		<path id="Vector" d="M5 17.5L15 17.5C15.66 17.5 16.29 17.23 16.76 16.76C17.23 16.29 17.5 15.66 17.5 15L17.5 5C17.5 4.33 17.23 3.7 16.76 3.23C16.29 2.76 15.66 2.5 15 2.5L14.16 2.5C14.16 2.27 14.07 2.06 13.92 1.91C13.76 1.75 13.55 1.66 13.33 1.66C13.11 1.66 12.9 1.75 12.74 1.91C12.58 2.06 12.5 2.27 12.5 2.5L7.5 2.5C7.5 2.27 7.41 2.06 7.25 1.91C7.09 1.75 6.88 1.66 6.66 1.66C6.44 1.66 6.23 1.75 6.07 1.91C5.92 2.06 5.83 2.27 5.83 2.5L5 2.5C4.33 2.5 3.7 2.76 3.23 3.23C2.76 3.7 2.5 4.33 2.5 5L2.5 15C2.5 15.66 2.76 16.29 3.23 16.76C3.7 17.23 4.33 17.5 5 17.5ZM4.16 5C4.16 4.77 4.25 4.56 4.41 4.41C4.56 4.25 4.77 4.16 5 4.16L5.83 4.16L5.83 5C5.83 5.22 5.92 5.43 6.07 5.58C6.23 5.74 6.44 5.83 6.66 5.83C6.88 5.83 7.09 5.74 7.25 5.58C7.41 5.43 7.5 5.22 7.5 5L7.5 4.16L12.5 4.16L12.5 5C12.5 5.22 12.58 5.43 12.74 5.58C12.9 5.74 13.11 5.83 13.33 5.83C13.55 5.83 13.76 5.74 13.92 5.58C14.07 5.43 14.16 5.22 14.16 5L14.16 4.16L15 4.16C15.22 4.16 15.43 4.25 15.58 4.41C15.74 4.56 15.83 4.77 15.83 5L15.83 7.5L4.16 7.5L4.16 5ZM4.16 9.16L15.83 9.16L15.83 15C15.83 15.22 15.74 15.43 15.58 15.58C15.43 15.74 15.22 15.83 15 15.83L5 15.83C4.77 15.83 4.56 15.74 4.41 15.58C4.25 15.43 4.16 15.22 4.16 15L4.16 9.16Z" fill="#464255" fill-opacity="1.000000" fill-rule="nonzero"/>
	</g>
</svg>
