<svg width="20.000000" height="20.000000" viewBox="0 0 20 20" fill="none" xmlns="http://www.w3.org/2000/svg" xmlns:xlink="http://www.w3.org/1999/xlink">
	<desc>
			Created with Pixso.
	</desc>
	<defs>
		<clipPath id="clip1_421">
			<rect id="Icon" rx="0.000000" width="19.000000" height="19.000000" transform="translate(0.500000 0.500000)" fill="white" fill-opacity="0"/>
		</clipPath>
	</defs>
	<rect id="Icon" rx="0.000000" width="19.000000" height="19.000000" transform="translate(0.500000 0.500000)" fill="#FFFFFF" fill-opacity="0"/>
	<g clip-path="url(#clip1_421)">
		<path id="Vector" d="M10.83 9.16C10.83 9.62 10.46 9.99 10 9.99C9.53 9.99 9.16 9.62 9.16 9.16C9.16 8.7 9.53 8.33 10 8.33C10.46 8.33 10.83 8.7 10.83 9.16Z" fill="#464255" fill-opacity="1.000000" fill-rule="evenodd"/>
		<path id="Vector" d="M7.5 9.16C7.5 9.62 7.12 9.99 6.66 9.99C6.2 9.99 5.83 9.62 5.83 9.16C5.83 8.7 6.2 8.33 6.66 8.33C7.12 8.33 7.5 8.7 7.5 9.16Z" fill="#464255" fill-opacity="1.000000" fill-rule="evenodd"/>
		<path id="Vector" d="M14.16 9.16C14.16 9.62 13.79 9.99 13.33 9.99C12.87 9.99 12.5 9.62 12.5 9.16C12.5 8.7 12.87 8.33 13.33 8.33C13.79 8.33 14.16 8.7 14.16 9.16Z" fill="#464255" fill-opacity="1.000000" fill-rule="evenodd"/>
		<path id="Vector" d="M2.54 18.22C2.71 18.29 2.9 18.33 3.09 18.33C3.27 18.33 3.46 18.29 3.63 18.22C3.8 18.15 3.96 18.04 4.09 17.91L6.17 15.83L14.16 15.83C15.27 15.83 16.33 15.39 17.11 14.61C17.89 13.83 18.33 12.77 18.33 11.66L18.33 6.66C18.33 5.56 17.89 4.5 17.11 3.72C16.33 2.93 15.27 2.5 14.16 2.5L5.83 2.5C4.72 2.5 3.66 2.93 2.88 3.72C2.1 4.5 1.66 5.56 1.66 6.66L1.66 16.9C1.66 17.19 1.74 17.46 1.9 17.7C2.05 17.93 2.28 18.11 2.54 18.22ZM3.33 6.66C3.33 6 3.59 5.36 4.06 4.89C4.53 4.43 5.17 4.16 5.83 4.16L14.16 4.16C14.82 4.16 15.46 4.43 15.93 4.89C16.4 5.36 16.66 6 16.66 6.66L16.66 11.66C16.66 12.32 16.4 12.96 15.93 13.43C15.46 13.9 14.82 14.16 14.16 14.16L5.83 14.16C5.72 14.16 5.61 14.18 5.51 14.22C5.41 14.27 5.31 14.33 5.24 14.4L3.33 16.32L3.33 6.66Z" fill="#464255" fill-opacity="1.000000" fill-rule="nonzero"/>
	</g>
</svg>
