<svg width="76.587463" height="90.831818" viewBox="0 0 76.5875 90.8318" fill="none" xmlns="http://www.w3.org/2000/svg" xmlns:xlink="http://www.w3.org/1999/xlink">
	<desc>
			Created with Pixso.
	</desc>
	<defs/>
	<path id="Vector" d="M44.03 90.35C41.91 90.66 39.73 90.83 37.52 90.83C29.43 90.83 21.85 88.64 15.34 84.84C16.37 81.01 18.35 77.62 20.99 74.88C20.88 75 20.77 75.11 20.66 75.23L47.86 75.23L44.03 90.35Z" fill="#E9E3D5" fill-opacity="1.000000" fill-rule="nonzero"/>
	<path id="Vector" d="M59.71 84.84C58.75 81.29 56.98 78.18 54.79 75.68C53.38 74.09 51.91 72.75 50.05 71.56C49.92 71.47 49.3 71.09 49.09 70.97C39.63 65.43 27.87 67.44 20.66 75.23C26.9 77.79 33.66 78.96 40.44 78.65C40.7 78.71 40.93 78.74 41.16 78.74C42.75 78.74 44.03 80.03 44.03 81.61L44.03 90.35C49.68 89.51 54.97 87.6 59.71 84.84Z" fill="#D3CDBF" fill-opacity="1.000000" fill-rule="nonzero"/>
	<path id="Vector" d="M54.42 87.46C52.91 88.09 51.36 88.64 49.78 89.1L49.78 78.74C52.1 81.09 53.75 84.1 54.42 87.46Z" fill="#A19B8D" fill-opacity="1.000000" fill-rule="nonzero"/>
	<path id="Vector" d="M25.27 78.74L25.27 89.1C23.68 88.64 22.13 88.09 20.63 87.46C21.3 84.1 22.95 81.09 25.27 78.74Z" fill="#B6B0A2" fill-opacity="1.000000" fill-rule="nonzero"/>
	<path id="Vector" d="M39.73 83.15C39.73 83.94 39.08 84.58 38.29 84.58C37.5 84.58 36.85 83.94 36.85 83.15C36.85 82.35 37.5 81.71 38.29 81.71C39.08 81.71 39.73 82.35 39.73 83.15Z" fill="#3E4954" fill-opacity="1.000000" fill-rule="evenodd"/>
	<path id="Vector" d="M39.73 88.89C39.73 89.68 39.08 90.33 38.29 90.33C37.5 90.33 36.85 89.68 36.85 88.89C36.85 88.1 37.5 87.46 38.29 87.46C39.08 87.46 39.73 88.1 39.73 88.89Z" fill="#3E4954" fill-opacity="1.000000" fill-rule="evenodd"/>
	<path id="Vector" d="M65.09 47.59C65.09 32.74 53.05 16.95 38.29 16.95C26.04 16.95 15.72 27.78 12.51 39.9C11.34 39.31 10.02 38.97 8.61 38.97C3.85 38.97 0 42.83 0 47.59C0 52.34 3.85 56.2 8.61 56.2C8.86 56.2 9.1 56.19 9.34 56.17C9.58 61.1 12.22 65.8 16.85 68.54C30.01 76.34 46.57 76.34 59.73 68.54C67.12 64.16 69.39 54.88 65.09 47.59Z" fill="#FFB578" fill-opacity="1.000000" fill-rule="nonzero"/>
	<path id="Vector" d="M67.97 38.97C66.56 38.97 65.24 39.31 64.06 39.9C61.94 31.87 56.69 24.42 49.84 20.3C49.84 20.3 57.23 29.02 57.23 45.67C57.23 50.76 54.51 55.68 49.71 58.52C37.62 65.68 22.68 66.27 10.12 60.28C11.25 63.61 13.54 66.58 16.85 68.54C30.01 76.34 46.57 76.34 59.73 68.54C64.38 65.78 67 61.09 67.24 56.17C67.48 56.19 67.72 56.2 67.97 56.2C72.72 56.2 76.58 52.34 76.58 47.59C76.58 42.83 72.72 38.97 67.97 38.97Z" fill="#F7A16E" fill-opacity="1.000000" fill-rule="nonzero"/>
	<path id="Vector" d="M11.48 47.59C11.48 49.17 10.2 50.46 8.61 50.46C7.03 50.46 5.74 49.17 5.74 47.59C5.74 46 7.03 44.71 8.61 44.71C10.2 44.71 11.48 46 11.48 47.59Z" fill="#F7A16E" fill-opacity="1.000000" fill-rule="evenodd"/>
	<path id="Vector" d="M70.84 47.59C70.84 49.17 69.55 50.46 67.97 50.46C66.38 50.46 65.09 49.17 65.09 47.59C65.09 46 66.38 44.71 67.97 44.71C69.55 44.71 70.84 46 70.84 47.59Z" fill="#CE795F" fill-opacity="1.000000" fill-rule="evenodd"/>
	<path id="Vector" d="M12.51 39.89C14.45 40.88 15.96 42.57 16.71 44.63C17.05 45.57 18.23 45.89 18.99 45.23C22.6 42.07 24.89 37.43 24.89 32.26C24.89 29.04 24 26.03 22.47 23.45C22.47 23.45 10.86 26.66 12.51 39.89Z" fill="#596775" fill-opacity="1.000000" fill-rule="nonzero"/>
	<path id="Vector" d="M54.11 23.45C52.57 26.03 51.69 29.04 51.69 32.26C51.69 37.43 53.97 42.07 57.59 45.23C58.34 45.89 59.53 45.57 59.87 44.63C60.62 42.57 62.13 40.88 64.07 39.89C65.72 26.66 54.11 23.45 54.11 23.45Z" fill="#46525E" fill-opacity="1.000000" fill-rule="nonzero"/>
	<path id="Vector" d="M13.4 11.2L63.18 11.2L63.18 31.67L13.4 31.67L13.4 11.2Z" fill="#E9E3D5" fill-opacity="1.000000" fill-rule="evenodd"/>
	<path id="Vector" d="M62.13 0C60.74 0 15.19 0 14.45 0C9.64 0 5.74 3.9 5.74 8.71C5.74 13.52 9.64 17.42 14.45 17.42C14.82 17.42 61.18 17.42 62.13 17.42C66.94 17.42 70.84 13.52 70.84 8.71C70.84 3.9 66.94 0 62.13 0Z" fill="#E9E3D5" fill-opacity="1.000000" fill-rule="nonzero"/>
	<path id="Vector" d="M70.84 8.71C70.84 7.19 70.45 5.77 69.77 4.53C67.91 5.01 66.53 6.7 66.53 8.71C66.53 11.13 64.55 13.11 62.13 13.11L14.45 13.11C12.44 13.11 10.75 14.49 10.28 16.35C11.52 17.03 12.94 17.42 14.45 17.42L22.97 17.42L38.29 17.42C48.85 17.42 61.15 17.42 62.13 17.42C66.94 17.42 70.84 13.52 70.84 8.71Z" fill="#D3CDBF" fill-opacity="1.000000" fill-rule="nonzero"/>
	<path id="Vector" d="M15.7 8.71C15.7 7.91 15.05 7.27 14.26 7.27C13.47 7.27 12.82 7.91 12.82 8.71C12.82 11.09 13.65 13.29 15.04 15.03L19.37 15.03C17.18 13.77 15.7 11.41 15.7 8.71Z" fill="#D3CDBF" fill-opacity="1.000000" fill-rule="nonzero"/>
	<path id="Vector" d="M63.75 8.71C63.75 7.91 63.11 7.27 62.32 7.27C61.53 7.27 60.88 7.91 60.88 8.71C60.88 11.41 59.4 13.77 57.21 15.03L61.54 15.03C62.92 13.29 63.75 11.09 63.75 8.71Z" fill="#D3CDBF" fill-opacity="1.000000" fill-rule="nonzero"/>
	<path id="Vector" d="M53.61 7.27C52.81 7.27 52.17 7.91 52.17 8.71C52.17 11.41 50.69 13.77 48.5 15.03L52.83 15.03C54.21 13.29 55.04 11.09 55.04 8.71C55.04 7.91 54.4 7.27 53.61 7.27Z" fill="#D3CDBF" fill-opacity="1.000000" fill-rule="nonzero"/>
	<path id="Vector" d="M27.18 8.71C27.18 7.91 26.54 7.27 25.75 7.27C24.95 7.27 24.31 7.91 24.31 8.71C24.31 11.09 25.14 13.29 26.53 15.03L30.86 15.03C28.67 13.77 27.18 11.41 27.18 8.71Z" fill="#D3CDBF" fill-opacity="1.000000" fill-rule="nonzero"/>
</svg>
