<svg width="20.000000" height="20.000000" viewBox="0 0 20 20" fill="none" xmlns="http://www.w3.org/2000/svg" xmlns:xlink="http://www.w3.org/1999/xlink">
	<desc>
			Created with Pixso.
	</desc>
	<defs>
		<clipPath id="clip1_400">
			<rect id="Icon" rx="0.000000" width="19.000000" height="19.000000" transform="translate(0.500000 0.500000)" fill="white" fill-opacity="0"/>
		</clipPath>
	</defs>
	<rect id="Icon" rx="0.000000" width="19.000000" height="19.000000" transform="translate(0.500000 0.500000)" fill="#FFFFFF" fill-opacity="0"/>
	<g clip-path="url(#clip1_400)">
		<path id="Vector" d="M15.99 13.92C16.42 13.4 16.66 12.75 16.66 12.08C16.66 11.3 16.35 10.56 15.81 10.02C15.26 9.47 14.52 9.16 13.74 9.16L13.51 9.16C14.2 8.35 14.58 7.31 14.58 6.25C14.58 5.48 14.39 4.72 14.02 4.04C13.65 3.37 13.12 2.79 12.47 2.38C11.83 1.96 11.08 1.72 10.32 1.66C9.55 1.61 8.78 1.75 8.08 2.07C7.38 2.39 6.77 2.88 6.32 3.5C5.86 4.12 5.56 4.84 5.46 5.6C5.35 6.37 5.44 7.14 5.71 7.86C5.98 8.58 6.43 9.22 7.02 9.72C5.45 10.32 4.09 11.39 3.13 12.78C2.18 14.16 1.66 15.81 1.66 17.5C1.66 17.72 1.75 17.93 1.91 18.08C2.06 18.24 2.27 18.33 2.49 18.33C2.72 18.33 2.93 18.24 3.08 18.08C3.24 17.93 3.33 17.72 3.33 17.5C3.33 15.73 4.03 14.03 5.28 12.78C6.53 11.53 8.23 10.83 9.99 10.83L11.12 10.83C10.88 11.33 10.78 11.88 10.85 12.43C10.92 12.98 11.15 13.5 11.5 13.92C10.79 14.32 10.2 14.9 9.79 15.6C9.38 16.3 9.16 17.1 9.16 17.91C9.16 18.13 9.25 18.34 9.41 18.5C9.56 18.66 9.77 18.75 9.99 18.75C10.22 18.75 10.43 18.66 10.58 18.5C10.74 18.34 10.83 18.13 10.83 17.91C10.83 17.14 11.14 16.4 11.68 15.85C12.23 15.3 12.97 15 13.74 15C14.52 15 15.26 15.3 15.81 15.85C16.35 16.4 16.66 17.14 16.66 17.91C16.66 18.13 16.75 18.34 16.91 18.5C17.06 18.66 17.27 18.75 17.49 18.75C17.72 18.75 17.93 18.66 18.08 18.5C18.24 18.34 18.33 18.13 18.33 17.91C18.33 17.1 18.11 16.3 17.7 15.6C17.29 14.9 16.7 14.32 15.99 13.92ZM9.99 9.16C9.42 9.16 8.85 8.99 8.37 8.67C7.89 8.35 7.52 7.89 7.3 7.36C7.08 6.83 7.02 6.24 7.13 5.68C7.25 5.11 7.52 4.59 7.93 4.18C8.34 3.77 8.86 3.5 9.43 3.38C9.99 3.27 10.58 3.33 11.11 3.55C11.64 3.77 12.1 4.14 12.42 4.62C12.74 5.1 12.91 5.67 12.91 6.25C12.91 7.02 12.6 7.76 12.06 8.31C11.51 8.85 10.77 9.16 9.99 9.16ZM13.74 13.33C13.41 13.33 13.1 13.2 12.86 12.96C12.63 12.73 12.49 12.41 12.49 12.08C12.5 11.75 12.63 11.43 12.86 11.2C13.1 10.96 13.41 10.83 13.74 10.83C14.08 10.83 14.39 10.96 14.63 11.19C14.86 11.43 14.99 11.75 14.99 12.08C14.99 12.41 14.86 12.73 14.63 12.96C14.39 13.2 14.08 13.33 13.74 13.33Z" fill="#464255" fill-opacity="1.000000" fill-rule="nonzero"/>
	</g>
</svg>
