<svg width="20.000000" height="20.000000" viewBox="0 0 20 20" fill="none" xmlns="http://www.w3.org/2000/svg" xmlns:xlink="http://www.w3.org/1999/xlink">
	<desc>
			Created with Pixso.
	</desc>
	<defs>
		<clipPath id="clip1_415">
			<rect id="Icon" rx="0.000000" width="19.000000" height="19.000000" transform="translate(0.500000 0.500000)" fill="white" fill-opacity="0"/>
		</clipPath>
	</defs>
	<rect id="Icon" rx="0.000000" width="19.000000" height="19.000000" transform="translate(0.500000 0.500000)" fill="#FFFFFF" fill-opacity="0"/>
	<g clip-path="url(#clip1_415)">
		<path id="Vector" d="M12.97 9.72C13.68 9.11 14.19 8.3 14.43 7.39C14.67 6.49 14.62 5.53 14.3 4.65C13.97 3.77 13.39 3.01 12.62 2.47C11.85 1.94 10.93 1.65 9.99 1.65C9.06 1.65 8.14 1.94 7.37 2.47C6.6 3.01 6.02 3.77 5.69 4.65C5.37 5.53 5.32 6.49 5.56 7.39C5.8 8.3 6.31 9.11 7.02 9.72C5.45 10.32 4.09 11.39 3.13 12.78C2.18 14.16 1.66 15.81 1.66 17.49C1.66 17.72 1.75 17.93 1.91 18.08C2.06 18.24 2.27 18.33 2.49 18.33C2.72 18.33 2.93 18.24 3.08 18.08C3.24 17.93 3.33 17.72 3.33 17.49C3.33 15.73 4.03 14.03 5.28 12.78C6.53 11.53 8.23 10.83 9.99 10.83C11.76 10.83 13.46 11.53 14.71 12.78C15.96 14.03 16.66 15.73 16.66 17.49C16.66 17.72 16.75 17.93 16.91 18.08C17.06 18.24 17.27 18.33 17.49 18.33C17.72 18.33 17.93 18.24 18.08 18.08C18.24 17.93 18.33 17.72 18.33 17.49C18.33 15.81 17.81 14.16 16.86 12.78C15.9 11.39 14.54 10.32 12.97 9.72ZM9.99 9.16C9.42 9.16 8.85 8.99 8.37 8.67C7.89 8.35 7.52 7.89 7.3 7.36C7.08 6.83 7.02 6.24 7.13 5.68C7.25 5.11 7.52 4.59 7.93 4.18C8.34 3.77 8.86 3.5 9.43 3.38C9.99 3.27 10.58 3.33 11.11 3.55C11.64 3.77 12.1 4.14 12.42 4.62C12.74 5.1 12.91 5.67 12.91 6.24C12.91 7.02 12.6 7.76 12.06 8.31C11.51 8.85 10.77 9.16 9.99 9.16Z" fill="#464255" fill-opacity="1.000000" fill-rule="nonzero"/>
	</g>
</svg>
