<svg width="20.000000" height="20.000000" viewBox="0 0 20 20" fill="none" xmlns="http://www.w3.org/2000/svg" xmlns:xlink="http://www.w3.org/1999/xlink">
	<desc>
			Created with Pixso.
	</desc>
	<defs>
		<clipPath id="clip1_397">
			<rect id="Icon" rx="0.000000" width="19.000000" height="19.000000" transform="translate(0.500000 0.500000)" fill="white" fill-opacity="0"/>
		</clipPath>
	</defs>
	<rect id="Icon" rx="0.000000" width="19.000000" height="19.000000" transform="translate(0.500000 0.500000)" fill="#FFFFFF" fill-opacity="0"/>
	<g clip-path="url(#clip1_397)">
		<path id="Vector" d="M10.54 1.86C10.39 1.73 10.19 1.66 10 1.66L4.16 1.66C3.94 1.66 3.73 1.75 3.57 1.91C3.42 2.06 3.33 2.27 3.33 2.5L3.33 17.5C3.33 17.72 3.42 17.93 3.57 18.08C3.73 18.24 3.94 18.33 4.16 18.33L15.83 18.33C16.05 18.33 16.26 18.24 16.42 18.08C16.57 17.93 16.66 17.72 16.66 17.5L16.66 7.5C16.66 7.37 16.64 7.26 16.59 7.15C16.54 7.04 16.46 6.94 16.37 6.86L10.54 1.86ZM10.83 4.3L13.58 6.66L10.83 6.66L10.83 4.3ZM15 16.66L5 16.66L5 3.33L9.16 3.33L9.16 7.5C9.16 7.72 9.25 7.93 9.41 8.08C9.56 8.24 9.77 8.33 10 8.33L15 8.33L15 16.66Z" fill="#464255" fill-opacity="1.000000" fill-rule="nonzero"/>
	</g>
</svg>
