<svg width="20.000000" height="20.000000" viewBox="0 0 20 20" fill="none" xmlns="http://www.w3.org/2000/svg" xmlns:xlink="http://www.w3.org/1999/xlink">
	<desc>
			Created with Pixso.
	</desc>
	<defs/>
	<rect id="Icon" rx="0.000000" width="19.000000" height="19.000000" transform="translate(0.500000 0.500000)" fill="#FFFFFF" fill-opacity="0"/>
	<path id="Vector" d="M16.87 6.87L16 6.87L16.1 5.81C16.13 5.55 16.1 5.28 16.02 5.03C15.94 4.78 15.8 4.56 15.63 4.36C15.45 4.17 15.24 4.01 15 3.91C14.76 3.8 14.5 3.75 14.24 3.75L4.5 3.75C4.24 3.75 3.98 3.8 3.74 3.91C3.5 4.01 3.29 4.17 3.11 4.36C2.94 4.56 2.8 4.79 2.72 5.03C2.64 5.28 2.61 5.55 2.64 5.81L3.49 15.37C3.51 15.52 3.48 15.21 3.59 15.81L1.73 15.81C1.56 15.81 1.4 15.87 1.28 15.99C1.17 16.11 1.1 16.26 1.1 16.43C1.1 16.6 1.17 16.76 1.28 16.87C1.4 16.99 1.56 17.06 1.73 17.06L17 17.25C17.16 17.25 17.32 17.18 17.44 17.06C17.55 16.94 17.62 16.79 17.62 16.62C17.62 16.45 17.55 16.3 17.44 16.18C17.32 16.06 17.16 16 17 16L15.13 16C15.18 15.85 15.21 15.71 15.23 15.56L15.44 12.5L16.87 12.5C17.37 12.49 17.84 12.3 18.2 11.95C18.55 11.59 18.74 11.12 18.75 10.62L18.75 8.75C18.74 8.25 18.55 7.77 18.2 7.42C17.84 7.07 17.37 6.87 16.87 6.87ZM5.66 15.81C5.5 15.81 5.35 15.75 5.24 15.64C5.12 15.54 5.05 15.4 5.03 15.24L4.13 5.83C4.12 5.75 4.13 5.66 4.16 5.58C4.19 5.49 4.23 5.42 4.29 5.35C4.35 5.29 4.42 5.24 4.5 5.2C4.58 5.17 4.67 5.15 4.75 5.15L14.02 5.2C14.1 5.2 14.19 5.22 14.27 5.25C14.35 5.29 14.42 5.34 14.48 5.41C14.54 5.47 14.58 5.55 14.61 5.63C14.64 5.71 14.65 5.8 14.64 5.89L14.02 15.24C14 15.4 13.93 15.54 13.81 15.65C13.7 15.75 13.55 15.81 13.39 15.81L5.66 15.81ZM17.5 10.62C17.49 10.79 17.43 10.94 17.31 11.06C17.19 11.18 17.04 11.24 16.87 11.25L15.56 11.25L15.87 8.12L16.87 8.12C17.04 8.12 17.19 8.19 17.31 8.3C17.43 8.42 17.49 8.58 17.5 8.75L17.5 10.62Z" fill="#464255" fill-opacity="1.000000" fill-rule="nonzero"/>
</svg>
