<svg width="20.000000" height="20.000000" viewBox="0 0 20 20" fill="none" xmlns="http://www.w3.org/2000/svg" xmlns:xlink="http://www.w3.org/1999/xlink">
	<desc>
			Created with Pixso.
	</desc>
	<defs>
		<clipPath id="clip1_412">
			<rect id="Icon" rx="0.000000" width="19.000000" height="19.000000" transform="translate(0.500000 0.500000)" fill="white" fill-opacity="0"/>
		</clipPath>
	</defs>
	<rect id="Icon" rx="0.000000" width="19.000000" height="19.000000" transform="translate(0.500000 0.500000)" fill="#FFFFFF" fill-opacity="0"/>
	<g clip-path="url(#clip1_412)">
		<path id="Vector" d="M5.83 10L5.83 13.33C5.83 13.55 5.92 13.76 6.07 13.92C6.23 14.07 6.44 14.16 6.66 14.16L10 14.16C10.1 14.16 10.21 14.14 10.31 14.1C10.42 14.06 10.51 14 10.59 13.92L16.66 7.85C17.19 7.31 17.49 6.59 17.49 5.83C17.49 5.07 17.19 4.34 16.66 3.8L16.19 3.33C15.64 2.81 14.91 2.52 14.16 2.52C13.41 2.52 12.68 2.81 12.14 3.33L6.07 9.4C5.99 9.48 5.93 9.57 5.89 9.68C5.85 9.78 5.83 9.89 5.83 10ZM7.5 10.34L13.33 4.5C13.55 4.29 13.85 4.17 14.16 4.17C14.47 4.17 14.77 4.29 15 4.5L15.46 4.97C15.68 5.19 15.8 5.49 15.8 5.8C15.8 6.12 15.68 6.42 15.46 6.64L9.63 12.47L7.5 12.47L7.5 10.34Z" fill="#464255" fill-opacity="1.000000" fill-rule="nonzero"/>
		<path id="Vector" d="M16.66 10C16.44 10 16.23 10.08 16.07 10.24C15.92 10.4 15.83 10.61 15.83 10.83L15.83 15C15.83 15.22 15.74 15.43 15.58 15.58C15.43 15.74 15.22 15.83 15 15.83L5 15.83C4.77 15.83 4.56 15.74 4.41 15.58C4.25 15.43 4.16 15.22 4.16 15L4.16 5C4.16 4.77 4.25 4.56 4.41 4.41C4.56 4.25 4.77 4.16 5 4.16L9.16 4.16C9.38 4.16 9.59 4.07 9.75 3.92C9.91 3.76 10 3.55 10 3.33C10 3.11 9.91 2.9 9.75 2.74C9.59 2.58 9.38 2.5 9.16 2.5L5 2.5C4.33 2.5 3.7 2.76 3.23 3.23C2.76 3.7 2.5 4.33 2.5 5L2.5 15C2.5 15.66 2.76 16.29 3.23 16.76C3.7 17.23 4.33 17.5 5 17.5L15 17.5C15.66 17.5 16.29 17.23 16.76 16.76C17.23 16.29 17.5 15.66 17.5 15L17.5 10.83C17.5 10.61 17.41 10.4 17.25 10.24C17.09 10.08 16.88 10 16.66 10Z" fill="#464255" fill-opacity="1.000000" fill-rule="nonzero"/>
	</g>
</svg>
