<svg width="20.000000" height="20.000000" viewBox="0 0 20 20" fill="none" xmlns="http://www.w3.org/2000/svg" xmlns:xlink="http://www.w3.org/1999/xlink">
	<desc>
			Created with Pixso.
	</desc>
	<defs>
		<clipPath id="clip1_391">
			<rect id="Icon" rx="0.000000" width="19.000000" height="19.000000" transform="translate(0.500000 0.500000)" fill="white" fill-opacity="0"/>
		</clipPath>
	</defs>
	<rect id="Icon" rx="0.000000" width="19.000000" height="19.000000" transform="translate(0.500000 0.500000)" fill="#FFFFFF" fill-opacity="0"/>
	<g clip-path="url(#clip1_391)">
		<path id="Vector" d="M2.5 6.66L2.5 16.66C2.5 16.88 2.58 17.09 2.74 17.25C2.9 17.41 3.11 17.49 3.33 17.49L7.5 17.49C7.72 17.49 7.93 17.41 8.08 17.25C8.24 17.09 8.33 16.88 8.33 16.66L8.33 10.83L11.66 10.83L11.66 16.66C11.66 16.88 11.75 17.09 11.91 17.25C12.06 17.41 12.27 17.49 12.5 17.49L16.66 17.49C16.88 17.49 17.09 17.41 17.25 17.25C17.41 17.09 17.5 16.88 17.5 16.66L17.5 6.66C17.5 6.53 17.46 6.4 17.41 6.29C17.35 6.17 17.27 6.07 17.16 5.99L10.5 0.99C10.35 0.89 10.18 0.83 10 0.83C9.81 0.83 9.64 0.89 9.5 0.99L2.83 5.99C2.72 6.07 2.64 6.17 2.58 6.29C2.53 6.4 2.5 6.53 2.5 6.66ZM4.16 7.08L10 2.7L15.83 7.08L15.83 15.83L13.33 15.83L13.33 9.99C13.33 9.77 13.24 9.56 13.08 9.41C12.93 9.25 12.72 9.16 12.5 9.16L7.5 9.16C7.27 9.16 7.06 9.25 6.91 9.41C6.75 9.56 6.66 9.77 6.66 9.99L6.66 15.83L4.16 15.83L4.16 7.08Z" fill="#00B074" fill-opacity="1.000000" fill-rule="nonzero"/>
	</g>
</svg>
