<svg width="20.000000" height="20.000000" viewBox="0 0 20 20" fill="none" xmlns="http://www.w3.org/2000/svg" xmlns:xlink="http://www.w3.org/1999/xlink">
	<desc>
			Created with Pixso.
	</desc>
	<defs>
		<clipPath id="clip1_394">
			<rect id="Icon" rx="0.000000" width="19.000000" height="19.000000" transform="translate(0.500000 0.500000)" fill="white" fill-opacity="0"/>
		</clipPath>
	</defs>
	<rect id="Icon" rx="0.000000" width="19.000000" height="19.000000" transform="translate(0.500000 0.500000)" fill="#FFFFFF" fill-opacity="0"/>
	<g clip-path="url(#clip1_394)">
		<path id="Vector" d="M17.5 4.16L2.5 4.16C2.02 4.16 1.66 3.8 1.66 3.33C1.66 2.86 2.02 2.5 2.5 2.5L17.5 2.5C17.97 2.5 18.33 2.86 18.33 3.33C18.33 3.8 17.97 4.16 17.5 4.16Z" fill="#464255" fill-opacity="1.000000" fill-rule="nonzero"/>
		<path id="Vector" d="M12.5 8.61L2.5 8.61C2.02 8.61 1.66 8.24 1.66 7.77C1.66 7.3 2.02 6.94 2.5 6.94L12.5 6.94C12.97 6.94 13.33 7.3 13.33 7.77C13.33 8.24 12.97 8.61 12.5 8.61Z" fill="#464255" fill-opacity="1.000000" fill-rule="nonzero"/>
		<path id="Vector" d="M17.5 13.05L2.5 13.05C2.02 13.05 1.66 12.69 1.66 12.22C1.66 11.74 2.02 11.38 2.5 11.38L17.5 11.38C17.97 11.38 18.33 11.74 18.33 12.22C18.33 12.69 17.97 13.05 17.5 13.05Z" fill="#464255" fill-opacity="1.000000" fill-rule="nonzero"/>
		<path id="Vector" d="M12.5 17.5L2.5 17.5C2.02 17.5 1.66 17.13 1.66 16.66C1.66 16.19 2.02 15.83 2.5 15.83L12.5 15.83C12.97 15.83 13.33 16.19 13.33 16.66C13.33 17.13 12.97 17.5 12.5 17.5Z" fill="#464255" fill-opacity="1.000000" fill-rule="nonzero"/>
	</g>
</svg>
