<svg width="20.000000" height="20.000000" viewBox="0 0 20 20" fill="none" xmlns="http://www.w3.org/2000/svg" xmlns:xlink="http://www.w3.org/1999/xlink">
	<desc>
			Created with Pixso.
	</desc>
	<defs>
		<clipPath id="clip1_406">
			<rect id="Icon" rx="0.000000" width="19.000000" height="19.000000" transform="translate(0.500000 0.500000)" fill="white" fill-opacity="0"/>
		</clipPath>
	</defs>
	<rect id="Icon" rx="0.000000" width="19.000000" height="19.000000" transform="translate(0.500000 0.500000)" fill="#FFFFFF" fill-opacity="0"/>
	<g clip-path="url(#clip1_406)">
		<path id="Vector" d="M2.5 18.33L5.83 18.33C5.94 18.33 6.05 18.31 6.15 18.27C6.25 18.23 6.34 18.16 6.42 18.09L16.42 8.09C16.5 8.01 16.56 7.92 16.6 7.82C16.64 7.71 16.67 7.61 16.67 7.5C16.67 7.39 16.64 7.28 16.6 7.17C16.56 7.07 16.5 6.98 16.42 6.9L13.09 3.57C13.01 3.49 12.92 3.43 12.82 3.39C12.71 3.35 12.61 3.32 12.5 3.32C12.39 3.32 12.28 3.35 12.17 3.39C12.07 3.43 11.98 3.49 11.9 3.57L1.9 13.57C1.83 13.65 1.76 13.74 1.72 13.84C1.68 13.94 1.66 14.05 1.66 14.16L1.66 17.5C1.66 17.72 1.75 17.93 1.91 18.08C2.06 18.24 2.27 18.33 2.5 18.33ZM3.33 14.5L12.5 5.34L14.65 7.5L5.49 16.66L3.33 16.66L3.33 14.5Z" fill="#464255" fill-opacity="1.000000" fill-rule="nonzero"/>
		<path id="Vector" d="M14.75 1.9C14.68 1.83 14.58 1.76 14.48 1.72C14.38 1.68 14.27 1.66 14.16 1.66C13.94 1.66 13.73 1.75 13.57 1.9C13.41 2.06 13.33 2.27 13.33 2.5C13.33 2.72 13.41 2.93 13.57 3.09L16.9 6.42C16.98 6.5 17.07 6.56 17.17 6.6C17.28 6.64 17.39 6.67 17.5 6.67C17.61 6.67 17.71 6.64 17.82 6.6C17.92 6.56 18.01 6.5 18.09 6.42C18.16 6.34 18.23 6.25 18.27 6.15C18.31 6.05 18.33 5.94 18.33 5.83C18.33 5.72 18.31 5.61 18.27 5.51C18.23 5.41 18.16 5.31 18.09 5.24L14.75 1.9Z" fill="#464255" fill-opacity="1.000000" fill-rule="nonzero"/>
	</g>
</svg>
