<svg width="20.000000" height="20.000000" viewBox="0 0 20 20" fill="none" xmlns="http://www.w3.org/2000/svg" xmlns:xlink="http://www.w3.org/1999/xlink">
	<desc>
			Created with Pixso.
	</desc>
	<defs>
		<clipPath id="clip1_424">
			<rect id="Icon" rx="0.000000" width="19.000000" height="19.000000" transform="translate(0.500000 0.500000)" fill="white" fill-opacity="0"/>
		</clipPath>
	</defs>
	<rect id="Icon" rx="0.000000" width="19.000000" height="19.000000" transform="translate(0.500000 0.500000)" fill="#FFFFFF" fill-opacity="0"/>
	<g clip-path="url(#clip1_424)">
		<path id="Vector" d="M4.16 17.5L15.83 17.5C16.49 17.5 17.13 17.23 17.6 16.76C18.06 16.29 18.33 15.66 18.33 15L18.33 5C18.33 4.33 18.06 3.7 17.6 3.23C17.13 2.76 16.49 2.5 15.83 2.5L4.16 2.5C3.5 2.5 2.86 2.76 2.39 3.23C1.92 3.7 1.66 4.33 1.66 5L1.66 15C1.66 15.66 1.92 16.29 2.39 16.76C2.86 17.23 3.5 17.5 4.16 17.5ZM16.66 10.83L12.49 10.83L12.49 9.16L16.66 9.16L16.66 10.83ZM3.33 5C3.33 4.77 3.42 4.56 3.57 4.41C3.73 4.25 3.94 4.16 4.16 4.16L15.83 4.16C16.05 4.16 16.26 4.25 16.42 4.41C16.57 4.56 16.66 4.77 16.66 5L16.66 7.5L11.66 7.5C11.44 7.5 11.23 7.58 11.07 7.74C10.92 7.9 10.83 8.11 10.83 8.33L10.83 11.66C10.83 11.88 10.92 12.09 11.07 12.25C11.23 12.41 11.44 12.5 11.66 12.5L16.66 12.5L16.66 15C16.66 15.22 16.57 15.43 16.42 15.58C16.26 15.74 16.05 15.83 15.83 15.83L4.16 15.83C3.94 15.83 3.73 15.74 3.57 15.58C3.42 15.43 3.33 15.22 3.33 15L3.33 5Z" fill="#464255" fill-opacity="1.000000" fill-rule="nonzero"/>
	</g>
</svg>
